<mxfile modified="2022-05-20T01:07:08.433Z" host="app.diagrams.net" agent="5.0 (Windows NT 10.0; Win64; x64) AppleWebKit/537.36 (KHTML, like Gecko) Chrome/101.0.4951.54 Safari/537.36" etag="w7eRuEG20xZcdoNiuhty" compressed="false" version="18.0.8" type="google">
  <diagram id="354bNngP8ijNnJC1rLJj" name="Functionality/Functionality">
    <mxGraphModel grid="1" page="1" gridSize="10" guides="1" tooltips="1" connect="0" arrows="1" fold="1" pageScale="1" pageWidth="827" pageHeight="1169" math="0" shadow="0">
      <root>
        <mxCell id="zpEN8MnZaeUZKq_dRWkz-0" />
        <mxCell id="zpEN8MnZaeUZKq_dRWkz-1" value="Diagram" parent="zpEN8MnZaeUZKq_dRWkz-0" />
        <mxCell id="zpEN8MnZaeUZKq_dRWkz-2" value="Common Human Interface&amp;nbsp; Functionality" style="rounded=0;whiteSpace=wrap;html=1;strokeColor=#000000;strokeWidth=1;fillColor=none;fontSize=12;fontColor=#000000;align=center;fontFamily=Helvetica;recursiveResize=0;container=1;collapsible=0;absoluteArcSize=1;arcSize=12;verticalAlign=top;" vertex="1" parent="zpEN8MnZaeUZKq_dRWkz-1">
          <mxGeometry x="119.00000000000006" y="200" width="561" height="130" as="geometry" />
        </mxCell>
        <mxCell id="zpEN8MnZaeUZKq_dRWkz-3" value="&lt;font style=&quot;font-size: 12px ; line-height: 90%&quot;&gt;Context View&lt;br&gt;&lt;font style=&quot;font-size: 12px&quot;&gt;(Sys,Session,&amp;nbsp; Org,User,&lt;br&gt;resource)&lt;/font&gt;&lt;/font&gt;" style="rounded=0;whiteSpace=wrap;html=1;strokeColor=#82b366;strokeWidth=3;fillColor=none;fontSize=10;align=center;fontFamily=Helvetica;verticalAlign=middle;" vertex="1" parent="zpEN8MnZaeUZKq_dRWkz-2">
          <mxGeometry x="10" y="30" width="80" height="40" as="geometry" />
        </mxCell>
        <mxCell id="zpEN8MnZaeUZKq_dRWkz-4" value="&lt;font style=&quot;font-size: 12px ; line-height: 90%&quot;&gt;Status Mgmt&lt;br&gt;&lt;font style=&quot;font-size: 12px&quot;&gt;(System, Queue Operation)&lt;/font&gt;&lt;/font&gt;" style="rounded=0;whiteSpace=wrap;html=1;strokeColor=#82b366;strokeWidth=3;fillColor=none;fontSize=10;align=center;fontFamily=Helvetica;verticalAlign=middle;" vertex="1" parent="zpEN8MnZaeUZKq_dRWkz-2">
          <mxGeometry x="101" y="30" width="80" height="40" as="geometry" />
        </mxCell>
        <mxCell id="zpEN8MnZaeUZKq_dRWkz-5" value="&lt;p style=&quot;line-height: 90% ; font-size: 12px&quot;&gt;BREAD Interfaces&lt;br&gt;&amp;amp; Validation&amp;nbsp;&lt;/p&gt;" style="rounded=0;whiteSpace=wrap;html=1;strokeColor=#82b366;strokeWidth=3;fillColor=none;fontSize=10;align=center;fontFamily=Helvetica;verticalAlign=middle;" vertex="1" parent="zpEN8MnZaeUZKq_dRWkz-2">
          <mxGeometry x="191" y="30" width="80" height="40" as="geometry" />
        </mxCell>
        <mxCell id="zpEN8MnZaeUZKq_dRWkz-6" value="Localisation, Globalisation" style="rounded=0;whiteSpace=wrap;html=1;strokeColor=#82b366;strokeWidth=3;fillColor=none;fontSize=12;align=center;fontFamily=Helvetica;verticalAlign=middle;" vertex="1" parent="zpEN8MnZaeUZKq_dRWkz-2">
          <mxGeometry x="280" y="80" width="80" height="40" as="geometry" />
        </mxCell>
        <mxCell id="zpEN8MnZaeUZKq_dRWkz-7" value="OIDC &lt;br style=&quot;font-size: 12px;&quot;&gt;Identity&lt;br style=&quot;font-size: 12px;&quot;&gt;Integration" style="rounded=0;whiteSpace=wrap;html=1;strokeColor=#82b366;strokeWidth=3;fillColor=none;fontSize=12;align=center;fontFamily=Helvetica;verticalAlign=middle;" vertex="1" parent="zpEN8MnZaeUZKq_dRWkz-2">
          <mxGeometry x="11" y="80" width="79" height="40" as="geometry" />
        </mxCell>
        <mxCell id="zpEN8MnZaeUZKq_dRWkz-8" value="&lt;p style=&quot;line-height: 90% ; font-size: 12px&quot;&gt;Single-Session&lt;br&gt;Multi-Organisation&lt;/p&gt;" style="rounded=0;whiteSpace=wrap;html=1;strokeColor=#82b366;strokeWidth=3;fillColor=none;fontSize=10;align=center;fontFamily=Helvetica;verticalAlign=middle;dashed=1;" vertex="1" parent="zpEN8MnZaeUZKq_dRWkz-2">
          <mxGeometry x="460" y="80" width="80" height="40" as="geometry" />
        </mxCell>
        <mxCell id="zpEN8MnZaeUZKq_dRWkz-9" value="&lt;p style=&quot;line-height: 80%&quot;&gt;Mobile&lt;br&gt;Optimized&lt;br style=&quot;font-size: 12px&quot;&gt;&lt;font style=&quot;font-size: 12px&quot;&gt;(Progressive Display)&lt;/font&gt;&lt;/p&gt;" style="rounded=0;whiteSpace=wrap;html=1;strokeColor=#82b366;strokeWidth=3;fillColor=none;fontSize=12;align=center;fontFamily=Helvetica;verticalAlign=middle;" vertex="1" parent="zpEN8MnZaeUZKq_dRWkz-2">
          <mxGeometry x="100" y="80" width="79" height="40" as="geometry" />
        </mxCell>
        <mxCell id="zpEN8MnZaeUZKq_dRWkz-10" value="Accessible" style="rounded=0;whiteSpace=wrap;html=1;strokeColor=#82b366;strokeWidth=3;fillColor=none;fontSize=12;align=center;fontFamily=Helvetica;verticalAlign=middle;" vertex="1" parent="zpEN8MnZaeUZKq_dRWkz-2">
          <mxGeometry x="190" y="80" width="80" height="40" as="geometry" />
        </mxCell>
        <mxCell id="zpEN8MnZaeUZKq_dRWkz-11" value="&lt;p style=&quot;line-height: 90% ; font-size: 12px&quot;&gt;System/&lt;br&gt;Organisation Agreements&lt;/p&gt;" style="rounded=0;whiteSpace=wrap;html=1;strokeColor=#82b366;strokeWidth=3;fillColor=none;fontSize=10;align=center;fontFamily=Helvetica;verticalAlign=middle;" vertex="1" parent="zpEN8MnZaeUZKq_dRWkz-2">
          <mxGeometry x="280" y="30" width="80" height="40" as="geometry" />
        </mxCell>
        <mxCell id="zpEN8MnZaeUZKq_dRWkz-12" value="Notification Management" style="rounded=0;whiteSpace=wrap;html=1;strokeColor=#82b366;strokeWidth=3;fillColor=none;fontSize=12;align=center;fontFamily=Helvetica;verticalAlign=middle;" vertex="1" parent="zpEN8MnZaeUZKq_dRWkz-2">
          <mxGeometry x="370" y="80" width="80" height="40" as="geometry" />
        </mxCell>
        <mxCell id="zpEN8MnZaeUZKq_dRWkz-13" value="&lt;font style=&quot;font-size: 12px ; line-height: 90%&quot;&gt;Common&lt;br&gt;Search&lt;/font&gt;" style="rounded=0;whiteSpace=wrap;html=1;strokeColor=#82b366;strokeWidth=3;fillColor=none;fontSize=10;align=center;fontFamily=Helvetica;verticalAlign=middle;" vertex="1" parent="zpEN8MnZaeUZKq_dRWkz-2">
          <mxGeometry x="370" y="30" width="80" height="40" as="geometry" />
        </mxCell>
        <mxCell id="zpEN8MnZaeUZKq_dRWkz-14" value="&lt;p style=&quot;line-height: 90%&quot;&gt;&lt;font style=&quot;font-size: 12px&quot;&gt;Organisation/ User Management&lt;/font&gt;&lt;/p&gt;" style="rounded=0;whiteSpace=wrap;html=1;strokeColor=#82b366;strokeWidth=3;fillColor=none;fontSize=10;align=center;fontFamily=Helvetica;verticalAlign=middle;" vertex="1" parent="zpEN8MnZaeUZKq_dRWkz-2">
          <mxGeometry x="460" y="30" width="80" height="40" as="geometry" />
        </mxCell>
        <mxCell id="zfTt7kNLcWgDtBOxanBL-1" value="Title/Diagram" parent="zpEN8MnZaeUZKq_dRWkz-0" />
        <mxCell id="zfTt7kNLcWgDtBOxanBL-2" value="&lt;font style=&quot;font-size: 12px&quot;&gt;Diagram: Base System Logical Module -&amp;nbsp;Functionality - High Level&lt;/font&gt;" style="text;strokeColor=none;fillColor=none;html=1;fontSize=24;fontStyle=2;verticalAlign=middle;align=left;shadow=0;glass=0;comic=0;opacity=30;fontColor=#808080;" vertex="1" parent="zfTt7kNLcWgDtBOxanBL-1">
          <mxGeometry x="120" y="360" width="520" height="20" as="geometry" />
        </mxCell>
        <mxCell id="zfTt7kNLcWgDtBOxanBL-3" value="About" parent="zpEN8MnZaeUZKq_dRWkz-0" />
      </root>
    </mxGraphModel>
  </diagram>
</mxfile>
